<svg width="515" height="515" viewBox="0 0 515 515" fill="none" xmlns="http://www.w3.org/2000/svg">
<g opacity="0.4" filter="url(#filter0_f_61_6)">
<path d="M466 257.5C468.761 257.5 471.006 255.261 470.941 252.5C469.994 212.022 457.552 172.609 435.019 138.886C411.559 103.776 378.215 76.411 339.203 60.2517C300.191 44.0924 257.263 39.8644 215.848 48.1023C174.433 56.3403 136.391 76.6742 106.533 106.533C76.6742 136.391 56.3403 174.433 48.1023 215.848C39.8644 257.263 44.0924 300.191 60.2517 339.203C76.411 378.215 103.776 411.559 138.886 435.019C172.609 457.552 212.022 469.994 252.5 470.941C255.261 471.006 257.5 468.761 257.5 466V465.24C257.5 462.478 255.26 460.246 252.5 460.178C214.15 459.232 176.817 447.422 144.864 426.072C111.523 403.795 85.5377 372.131 70.1928 335.085C54.8479 298.039 50.8329 257.275 58.6557 217.947C66.4785 178.62 85.7876 142.495 114.141 114.141C142.495 85.7876 178.62 66.4785 217.947 58.6557C257.275 50.8329 298.039 54.8479 335.085 70.1928C372.131 85.5377 403.795 111.523 426.072 144.864C447.422 176.817 459.232 214.15 460.178 252.5C460.246 255.26 462.478 257.5 465.24 257.5H466Z" fill="url(#paint0_linear_61_6)"/>
<path d="M93.396 249.369C91.0531 249.253 89.054 251.059 88.997 253.404C88.2225 285.256 96.4929 316.708 112.891 344.092C130.018 372.693 155.241 395.573 185.371 409.839C215.501 424.105 249.184 429.116 282.162 424.238C315.14 419.36 345.931 404.813 370.641 382.436C395.351 360.059 412.87 330.857 420.984 298.523C429.098 266.189 427.441 232.175 416.223 200.782C405.006 169.39 384.731 142.029 357.963 122.159C332.333 103.134 301.853 91.7949 270.08 89.4171C267.741 89.242 265.747 91.0527 265.631 93.3956C265.514 95.7385 267.321 97.7261 269.66 97.9043C299.754 100.197 328.619 110.956 352.9 128.98C378.319 147.848 397.572 173.83 408.224 203.641C418.876 233.451 420.449 265.751 412.745 296.455C405.04 327.16 388.403 354.89 364.939 376.139C341.474 397.389 312.235 411.203 280.919 415.835C249.603 420.467 217.617 415.708 189.006 402.161C160.394 388.615 136.443 366.888 120.179 339.728C104.644 313.785 96.791 283.998 97.4843 253.824C97.5382 251.479 95.7389 249.485 93.396 249.369Z" fill="url(#paint1_linear_61_6)"/>
<path d="M360.595 273.624C362.067 273.854 363.45 272.847 363.643 271.37C366.265 251.306 363.148 230.889 354.625 212.496C345.724 193.286 331.327 177.147 313.254 166.12C295.181 155.093 274.243 149.673 253.09 150.545C231.936 151.417 211.516 158.543 194.412 171.021C177.308 183.498 164.288 200.767 156.999 220.645C149.709 240.522 148.478 262.114 153.46 282.691C158.443 303.268 169.415 321.906 184.99 336.247C199.902 349.978 218.393 359.18 238.3 362.81C239.765 363.077 241.146 362.067 241.376 360.595C241.606 359.123 240.599 357.747 239.133 357.478C220.281 354.015 202.772 345.287 188.644 332.278C173.854 318.66 163.435 300.962 158.704 281.422C153.973 261.882 155.142 241.378 162.064 222.502C168.986 203.627 181.349 187.228 197.591 175.379C213.833 163.53 233.224 156.764 253.312 155.936C273.399 155.107 293.281 160.254 310.444 170.726C327.606 181.197 341.278 196.522 349.73 214.764C357.804 232.189 360.77 251.527 358.311 270.536C358.12 272.014 359.123 273.393 360.595 273.624Z" fill="url(#paint2_linear_61_6)"/>
</g>
<defs>
<filter id="filter0_f_61_6" x="0" y="-9.15527e-05" width="514.942" height="514.943" filterUnits="userSpaceOnUse" color-interpolation-filters="sRGB">
<feFlood flood-opacity="0" result="BackgroundImageFix"/>
<feBlend mode="normal" in="SourceGraphic" in2="BackgroundImageFix" result="shape"/>
<feGaussianBlur stdDeviation="22" result="effect1_foregroundBlur_61_6"/>
</filter>
<linearGradient id="paint0_linear_61_6" x1="44" y1="257.5" x2="471" y2="257.5" gradientUnits="userSpaceOnUse">
<stop stop-color="#0DF128"/>
<stop offset="1" stop-color="#9AEB5F"/>
</linearGradient>
<linearGradient id="paint1_linear_61_6" x1="88.9473" y1="257.5" x2="426.053" y2="257.5" gradientUnits="userSpaceOnUse">
<stop stop-color="#0DF128"/>
<stop offset="1" stop-color="#9AEB5F"/>
</linearGradient>
<linearGradient id="paint2_linear_61_6" x1="150.454" y1="257.5" x2="364.546" y2="257.5" gradientUnits="userSpaceOnUse">
<stop stop-color="#0DF128"/>
<stop offset="1" stop-color="#9AEB5F"/>
</linearGradient>
</defs>
</svg>
