<svg id="SvgjsSvg1026" width="288" height="288" xmlns="http://www.w3.org/2000/svg" version="1.1" xmlns:xlink="http://www.w3.org/1999/xlink" xmlns:svgjs="http://svgjs.com/svgjs"><defs id="SvgjsDefs1027"></defs><g id="SvgjsG1028"><svg xmlns="http://www.w3.org/2000/svg" viewBox="0 0 240 240" width="288" height="288"><linearGradient id="a" x1="-683.305" x2="-693.305" y1="534.845" y2="511.512" gradientTransform="matrix(6 0 0 -6 4255 3247)" gradientUnits="userSpaceOnUse"><stop offset="0" stop-color="#cecece" class="stopColor37aee2 svgShape"></stop><stop offset="1" stop-color="#e0e0e0" class="stopColor1e96c8 svgShape"></stop></linearGradient><path fill="url(#a)" d="M240 120c0 66.3-53.7 120-120 120S0 186.3 0 120 53.7 0 120 0s120 53.7 120 120z"></path><path fill="#b1b1b1" d="M98 175c-3.9 0-3.2-1.5-4.6-5.2L82 132.2 152.8 88l8.3 2.2-6.9 18.8L98 175z" class="colorc8daea svgShape"></path><path fill="#ffffff" d="M98 175c3 0 4.3-1.4 6-3 2.6-2.5 36-35 36-35l-20.5-5-19 12-2.5 30v1z" class="colora9c9dd svgShape"></path><linearGradient id="b" x1="128.991" x2="153.991" y1="118.245" y2="78.245" gradientTransform="matrix(1 0 0 -1 0 242)" gradientUnits="userSpaceOnUse"><stop offset="0" stop-color="#eff7fc" class="stopColoreff7fc svgShape"></stop><stop offset="1" stop-color="#ffffff" class="stopColorfff svgShape"></stop></linearGradient><path fill="url(#b)" d="M100 144.4l48.4 35.7c5.5 3 9.5 1.5 10.9-5.1L179 82.2c2-8.1-3.1-11.7-8.4-9.3L55 117.5c-7.9 3.2-7.8 7.6-1.4 9.5l29.7 9.3L152 93c3.2-2 6.2-.9 3.8 1.3L100 144.4z"></path></svg></g></svg>