<?xml version="1.0" encoding="UTF-8"?>
<svg id="Layer_2" data-name="Layer 2" xmlns="http://www.w3.org/2000/svg" xmlns:xlink="http://www.w3.org/1999/xlink" viewBox="0 0 1160.68 516.79">
  <defs>
    <style>
      .cls-1 {
        fill: url(#linear-gradient);
      }

      .cls-1, .cls-2 {
        stroke-width: 0px;
      }

      .cls-2 {
        fill: #ffe722;
      }
    </style>
    <linearGradient id="linear-gradient" x1="0" y1="258.39" x2="1160.68" y2="258.39" gradientUnits="userSpaceOnUse">
      <stop offset="0" stop-color="#0df128"/>
      <stop offset="1" stop-color="#9aeb5f"/>
    </linearGradient>
  </defs>
  <g id="Layer_1-2" data-name="Layer 1">
    <g>
      <g>
        <path class="cls-2" d="m1160.68,275.05c-.99.43-1.63.94-2.27.94-32.81.04-65.62.03-98.61.03-.78-1.78-1.59-3.26-2.09-4.84-2.93-9.27-5.77-18.57-8.67-27.85-.5-1.61-1.14-3.17-1.57-4.32-.56-.5-.71-.7-.91-.81-.21-.12-.46-.21-.69-.21-27.23-.08-54.47-.15-81.7-.21-1.2,0-2.4.18-3.94.3-2.82,5.91-4.28,12.31-6.34,18.49-2.07,6.21-4.07,12.44-5.96,18.21-2.39,1.81-4.66,1.3-6.79,1.31-11.92.05-23.83.03-35.75.03-47.67,0-95.34,0-143,0h-8.18c-2.97-1.86-3.87-4.49-5.22-6.76-17.21-29.09-34.38-58.2-51.56-87.3-1.47-2.5-2.97-4.98-4.4-7.37-2.14.43-1.66,1.87-1.66,2.92-.04,12.16-.03,24.32-.03,36.49,0,18,0,36-.01,54,0,2.37-.18,4.74-.28,7.2-1.38.32-2.3.72-3.23.73-28.21.03-56.42.03-84.63,0-.92,0-1.85-.39-2.47-.53-.39-.49-.57-.65-.68-.85-.11-.21-.22-.46-.22-.69-.07-34.29-.13-68.59-.18-102.88,0-.96.17-1.91.31-3.28,1.77-.59,3.5-1.41,5.33-1.75,27.49-5.04,54.97-10.12,82.49-14.96,24.65-4.33,49.36-8.38,74.04-12.52,2.37-.4,4.78-.56,7.56-.87,27.67,41.89,55.04,83.77,82.84,125.93,2.73-1.93,3.06-4.68,3.98-6.96,11.75-29.33,23.43-58.69,35.12-88.05,5.94-14.9,11.85-29.82,17.8-44.72.98-2.46,2.09-4.87,3.28-7.62,28.67-4.26,57.36-7.76,86.02-11.45.65-.08,1.36.31,2.45.59-1.92,7.65-4.99,14.78-7.46,22.1-2.56,7.6-5.33,15.13-7.99,22.7-2.56,7.31-5.1,14.62-7.54,21.64.5.62.6.82.77.95.19.14.44.3.66.3,15.07.09,30.15.17,45.22.23,1.21,0,2.43-.06,3.64-.2.42-.05.8-.43,1.6-.89-3.42-11.26-7.73-22.33-11.58-33.55-3.86-11.23-7.85-22.4-11.93-34,1.52-.58,2.56-1.22,3.65-1.36,17.37-2.13,34.75-4.19,52.13-6.29,6.27-.76,12.53-1.61,18.81-2.35,2.38-.28,4.78-.39,6.94-.55,3.82,6.61,53.9,130.2,71.69,176.77.5,1.3.82,2.67,1.25,4.11Z"/>
        <path class="cls-2" d="m278.65,199.33c-12.35,3.09-24.08,4.94-35.66,7.43-11.64,2.5-23.31,4.86-34.93,7.4-11.63,2.54-23.24,5.17-34.83,7.88-11.83,2.76-23.65,5.57-35.43,8.52-11.54,2.89-23.06,5.91-34.54,9.01-11.49,3.1-22.95,6.32-34.4,9.58-11.45,3.27-22.83,6.74-34.29,9.97-11.37,3.21-22.55,7.11-33.84,9.95-.43-.61-.61-.78-.67-.98-.07-.22-.09-.51,0-.72C35.2,179.1,70.36,90.84,105.54,2.59c.26-.64.82-1.16,1.19-1.67C113.77,0,160.26-.31,193.56.34c1.67.03,3.33.28,5.41.47,26.45,65.88,52.86,131.69,79.68,198.52Zm-126.52-100.01c-.98,1.68-1.74,2.61-2.11,3.68-7.78,21.96-15.53,43.93-23.23,65.92-.44,1.25-1.3,2.67.11,4.1.6.1,1.31.31,2.02.31,15.06.02,30.11.03,45.17,0,1.08,0,2.16-.41,3.9-.77-8.62-24.53-16.97-48.54-25.86-73.23Z"/>
        <path class="cls-2" d="m327.3,189.67c-.17-1.48-.51-3.11-.54-4.74-1.05-50.54-.47-177.11.84-183.74,2.41-1.42,5.13-.82,7.73-.82,18.96-.06,37.92-.03,56.88-.03,21.64,0,43.27.03,64.91,0,13.97-.03,27.71,1.65,40.83,6.49,33.92,12.52,56.16,35.9,64.17,71.55,4.33,19.25,4.17,38.62-2.02,57.62-2.19,6.71-5,13.15-9.49,19.1-73.99,10.44-147.9,21.97-221.56,35.06-.42.08-.91-.23-1.76-.47Zm92.02-58.98c8.87,0,17.37.28,25.84-.13,3.53-.17,7.19-1.36,10.43-2.86,9.89-4.59,14.83-14.02,13.98-25.75-.75-10.32-6.79-18.12-17.08-21.27-3.89-1.19-8.08-1.69-12.17-1.91-5.81-.32-11.65-.15-17.48-.06-1.35.02-2.69.56-3.91.83-.88,8.86-.66,45.01.39,51.15Z"/>
        <path class="cls-2" d="m600.35,147.62c-1-6.56-1.03-139.51-.05-146.46,2.29-1.29,5-.81,7.58-.81,20.91-.04,41.81-.02,62.72-.02,4.62,0,9.24-.03,13.86.02,1.92.02,3.85.19,5.62.29,2,2.63,1.2,5.41,1.2,7.99.07,26.99.04,53.97.04,80.96v7.79c2.65-.91,3.19-2.89,4.05-4.43,13.45-23.94,26.86-47.91,40.29-71.86,3.8-6.77,7.64-13.52,11.44-20.25,1.48-.19,2.67-.47,3.86-.47,33.3,0,66.6.02,99.9.07.67,0,1.35.35,2.03.54.71,2.63-1.27,4.14-2.37,5.87-14.22,22.35-28.5,44.67-42.77,66.99-9.43,14.74-18.86,29.48-28.3,44.22-1.31,2.04-2.65,4.07-3.89,5.97-6.45,1.82-166.36,23.39-175.21,23.61Z"/>
        <path class="cls-2" d="m509.58,432.08c4.3-7,6.35-13.47,9.14-19.56,2.74-5.96,5.21-12.04,7.81-18.06,2.7-6.24,5.41-12.49,8.16-18.71,2.64-5.97,4.82-12.16,8.18-17.95h17.49c2.42,1.82,2.95,4.57,4.01,6.97,8.77,20.03,17.47,40.1,26.21,60.14.95,2.17,2.01,4.3,3.54,7.55.99-3.1,1.72-5.03,2.23-7.01,5.31-20.46,10.58-40.93,15.89-61.38.54-2.07,1.25-4.1,1.81-5.92,6.99-.86,48.5-.82,54.52,0,1.21,2.48-.42,4.67-1.09,6.84-7.18,23.46-14.47,46.89-21.74,70.33-7.13,22.97-14.27,45.94-21.41,68.91-.72,2.31-1.48,4.61-2.3,7.18-1.12.29-2.25.84-3.38.85-12.88.06-25.77.05-38.65.01-.94,0-1.87-.31-3.27-.56-8.05-20.45-16.12-40.96-24.54-62.34-3.99,7.22-6.08,14.14-8.77,20.79-2.82,6.98-5.51,14.02-8.27,21.03-2.66,6.77-5.34,13.53-8.07,20.45-4.93,1.3-9.8.55-14.59.67-5.1.13-10.21.03-15.31.03h-13.78c-.93-.68-1.14-.8-1.32-.97-.17-.16-.38-.34-.44-.54-15.23-48.69-30.46-97.38-45.67-146.07-.51-1.62-.91-3.27-1.34-4.91-.06-.23-.06-.49,0-.71.06-.23.22-.43.61-1.12,1.05-.13,2.42-.4,3.8-.44,20.69-.62,44.34-.28,50.68.77,6.82,23.82,12.64,48.13,19.85,73.77Z"/>
        <path class="cls-2" d="m756.29,516.78c-12.62.08-25.63-1.46-37.96-6.47-25.35-10.29-42.04-28.3-48.08-55.35-3.4-15.22-3.09-30.49,1.4-45.43,7.71-25.66,25.09-42.14,49.99-51.02,12.05-4.3,24.62-5.63,37.32-5.38,11.2.22,22.32,1.57,32.94,5.44,25.65,9.36,43.31,26.49,50.36,53.31,4.35,16.55,4.16,33.32-.9,49.68-7.39,23.87-23.62,39.72-46.61,48.86-12.14,4.83-24.88,6.39-38.47,6.37Zm-33.11-83.94c.18,3.65.13,5.61.38,7.53,1.68,12.87,8.18,22.21,20.5,26.88,6.48,2.46,13.28,2.79,20.1,1.39,13.62-2.79,22.75-12.28,25.23-25.93.97-5.34.92-10.6-.09-15.93-2.5-13.17-11.83-22.88-24.93-25.39-6-1.15-12.07-1.06-18.04.66-10.63,3.06-17.7,9.92-21.13,20.31-1.27,3.86-1.58,8.05-2.02,10.46Z"/>
        <path class="cls-2" d="m154.43,511.34c-6.37,1.19-29.54,1.46-41.94.62-4.97-4.91-8.72-11.2-13.16-16.92-4.62-5.95-9.04-12.06-13.55-18.1-4.36-5.85-8.72-11.7-13.08-17.54-4.35-5.83-8.71-11.65-12.97-17.34-2.68.56-1.69,2.41-1.69,3.57-.08,19.21-.05,38.42-.07,57.64,0,2.64-.14,5.27-.23,8.37-8.2,1.36-16.17.52-24.08.65-7.99.13-16,.18-23.52-.08-2.15-2.36-1.55-4.65-1.55-6.76-.05-15.81-.03-31.61-.03-47.42,0-22.13,0-44.26,0-66.39,0-2.65,0-5.29,0-7.52,5.42-4.54,36.82-23.84,42.62-26.29,2.68.58,3.65,3.03,5.08,4.9,14.13,18.58,28.19,37.21,42.29,55.81,1.58,2.09,3.25,4.12,4.87,6.17,2.37-1.23,1.63-3.13,1.63-4.66.05-17.75.03-35.51.04-53.26,0-2.65.09-5.29.15-8.18,1.46-.41,2.57-.99,3.69-1,14.1-.05,28.2-.03,42.31.01.69,0,1.39.31,2.6.61.19,1.25.57,2.61.58,3.97.06,8.02.04,16.05.04,24.08,0,38.67,0,77.33,0,116v9.08Z"/>
        <path class="cls-2" d="m974.61,458.6c4.5,9.07,8.84,17.76,13.14,26.47,4.27,8.66,8.71,17.23,13.02,26.41-1.62.38-2.5.77-3.38.77-17.73.04-35.45.03-53.41.03-7.04-13.69-12.93-27.55-19.79-40.98-3.38-1.27-6.66-.65-10.15-.41-1.04,7.27-.38,14.06-.54,20.82-.16,6.52.21,13.05-.24,19.97-8.79,1.32-17.25.51-25.65.59-8.2.08-16.43.39-24.15-.23-.6-.75-.78-.92-.9-1.13-.11-.2-.24-.44-.24-.66-.08-47.91-.15-95.82-.21-143.74,0-2.19.05-4.38.13-6.56.02-.45.32-.9.64-1.74,1.43-.21,3.07-.64,4.7-.65,22.86-.04,45.72-.13,68.58.04,7.55.05,15.06,1.05,22.19,3.78,21.72,8.33,34.43,23.82,36.85,47.18.5,4.8.4,9.72.02,14.54-.95,12.18-6.22,22.34-15.18,30.6-.89.82-1.85,1.58-2.76,2.38-.72.64-1.4,1.31-2.68,2.52Zm-60.38-28.32c5.63,1.23,11.39,1.19,17.07-.14,7.19-1.68,11.48-7.83,10.93-15.11-.52-6.97-5.27-11.95-12.66-12.8-3.84-.44-7.76-.35-11.64-.32-1.34,0-2.68.53-3.86.78-.86,7.6-.78,21.58.15,27.58Z"/>
        <path class="cls-2" d="m1109.92,433.8c8.28,12.85,16.77,25.56,25.14,38.35,8.37,12.78,16.75,25.55,25.45,38.81-1.32.58-2.1,1.22-2.89,1.22-18.48,0-36.95-.06-55.43-.12-.23,0-.45-.15-1.26-.43-1.03-1.6-2.4-3.57-3.62-5.63-8.8-14.85-17.56-29.73-26.36-44.58-.95-1.6-2.07-3.09-3.68-5.48-.94,2.99-.61,5.11-.66,7.16-.06,2.43-.01,4.86-.01,7.3v20.43c0,2.19,0,4.38,0,6.57,0,2.43.03,4.87-.01,7.3-.04,2.15-.17,4.3-.27,6.71-1.09.32-1.97.8-2.85.8-15.08.04-30.15.04-45.23,0-.68,0-1.37-.34-2.44-.63-.18-1.57-.54-3.19-.54-4.82-.03-47.92-.03-95.83,0-143.75,0-1.44.22-2.88.36-4.58,1.22-.3,2.36-.83,3.49-.83,14.59-.05,29.18-.04,43.77,0,.93,0,1.86.32,3.2.57,1.01,4.36.4,8.72.5,13.01.1,4.38.02,8.76.02,13.13,0,4.38,0,8.76,0,13.13,0,4.3.01,8.6.02,13.01,2.72-.2,2.95-2.23,3.71-3.56,8.02-14.18,15.96-28.4,23.93-42.61,1.18-2.1,2.46-4.15,3.55-6,6.14-.99,52.04-1.04,58.5-.12,1.19,1.57-.04,2.73-.76,3.87-5.99,9.45-12.02,18.87-18.04,28.29-7.86,12.29-15.73,24.58-23.58,36.87-1.3,2.04-2.51,4.13-4.02,6.61Z"/>
        <path class="cls-2" d="m179.33,512.05c-.91-6.92-.96-146.62-.12-153.64,1.19-.27,2.52-.81,3.87-.83,6.08-.1,12.16-.06,18.24-.06,24.81,0,49.62-.01,74.43.02,2.63,0,5.33-.36,7.79.61,1.16,5.25,1.41,31.53.44,40.08-1.57,1.62-3.61,1.14-5.49,1.15-13.62.04-27.24,0-40.86.04-2.37,0-4.74.21-7.4.33-.9,5.23-.63,10.02-.24,14.65,1.68,1.82,3.73,1.37,5.61,1.37,11.68.04,23.35,0,35.03.04,2.38,0,4.76.2,6.99.3,1.36,5.39,1.67,26.81.64,36.66-1.46,1.77-3.54,1.24-5.4,1.25-11.67.06-23.35.02-35.03.05-2.39,0-4.78.18-7.32.29-1.4,5.42-.95,10.4-.29,15.84,2.01.18,3.88.49,5.76.5,13.86.04,27.73.01,41.59.04,2.38,0,4.77.18,7.56.3.97,4.61.42,8.97.51,13.27.09,4.62.04,9.24.02,13.87-.02,4.34-.09,8.67-.14,13.09-2.85,1.52-5.56,1.03-8.15,1.03-19.46.05-38.92.03-58.38.03-10.7,0-21.4.01-32.11-.01-2.4,0-4.8-.16-7.56-.25Z"/>
        <path class="cls-2" d="m917.07,105.8c.22-1.29.22-2.29.57-3.15,13.45-33.84,26.93-67.68,40.49-101.71,1.67-.22,3.06-.58,4.45-.58,28.2-.03,56.39-.02,84.59,0,.96,0,1.92.19,3.18.32.65,1.16,1.5,2.33,2.02,3.63,11.15,27.72,22.27,55.46,33.38,83.2.52,1.31.86,2.69,1.19,3.73-1.17,1.99-2.75,1.55-4.1,1.63-25.71,1.55-51.45,2.74-77.12,4.71-22.52,1.73-44.98,4.32-67.46,6.55-5.08.5-10.14,1.16-15.22,1.64-1.88.18-3.79.03-5.95.03Z"/>
        <path class="cls-2" d="m337.49,402.94c-13.31-1.01-26.62.25-39.84-.72-.36-1.05-.78-1.71-.78-2.37-.06-12.89-.08-25.77-.06-38.66,0-.93.37-1.86.61-2.93,1.03-.25,1.95-.66,2.87-.66,43.03,0,86.05.04,129.08.11.66,0,1.32.49,1.92.72.88,5.53,1.01,35.64.16,43.43-1.49.22-3.09.66-4.7.67-9.24.07-18.48.04-27.71.04-2.41,0-4.81,0-7.62,0-.35,1.97-.84,3.55-.86,5.14-.09,7.54-.04,15.07-.04,22.61,0,24.31,0,48.63-.01,72.94,0,2.63-.16,5.26-.26,8.25-4.53,1.45-8.9.64-13.17.78-4.13.14-8.26.03-12.4.03-4.38,0-8.75.04-13.13-.01-4.09-.04-8.2.26-12.05-.31-1.79-2.9-1.12-5.64-1.12-8.24-.05-30.88-.02-61.76-.06-92.64,0-2.6.43-5.3-.81-8.17Z"/>
        <path class="cls-2" d="m573.96,275.38c-1.43.32-2.32.66-3.23.71-10.79.59-92.63.12-97.65-.53-3.23-4.69-32.56-66.35-35.13-73.96,7.23-2.74,14.89-3.75,22.36-5.5,7.33-1.72,14.69-3.35,22.04-4.96,7.6-1.66,15.2-3.28,22.81-4.88,7.33-1.54,14.68-3.03,21.78-4.49,3.52,4.76,42.98,83.37,47.02,93.63Z"/>
        <path class="cls-2" d="m327.28,229.36c7.63-3.77,80.39-22.18,90.19-22.82.16.17.33.32.46.5.14.2.33.42.33.63.07,20.68.13,41.36.16,62.03,0,1.69-.15,3.38-.23,5.1-2.44,1.98-5.21,1.3-7.78,1.3-22.14.06-44.27.03-66.41.03-4.14,0-8.27.05-12.4-.05-1.4-.03-2.79-.43-4.06-.65-1-5.76-1.14-38.88-.26-46.09Z"/>
        <path class="cls-2" d="m293.78,239.14c3.24,5.29,12.94,29.3,14.69,36.34-1.4.22-2.75.62-4.1.62-29.84.04-59.68.04-89.53,0-1.32,0-2.64-.43-4.44-.74,11.28-8.58,58.67-29.1,83.37-36.23Z"/>
      </g>
      <g>
        <path class="cls-1" d="m1160.68,275.05c-.99.43-1.63.94-2.27.94-32.81.04-65.62.03-98.61.03-.78-1.78-1.59-3.26-2.09-4.84-2.93-9.27-5.77-18.57-8.67-27.85-.5-1.61-1.14-3.17-1.57-4.32-.56-.5-.71-.7-.91-.81-.21-.12-.46-.21-.69-.21-27.23-.08-54.47-.15-81.7-.21-1.2,0-2.4.18-3.94.3-2.82,5.91-4.28,12.31-6.34,18.49-2.07,6.21-4.07,12.44-5.96,18.21-2.39,1.81-4.66,1.3-6.79,1.31-11.92.05-23.83.03-35.75.03-47.67,0-95.34,0-143,0h-8.18c-2.97-1.86-3.87-4.49-5.22-6.76-17.21-29.09-34.38-58.2-51.56-87.3-1.47-2.5-2.97-4.98-4.4-7.37-2.14.43-1.66,1.87-1.66,2.92-.04,12.16-.03,24.32-.03,36.49,0,18,0,36-.01,54,0,2.37-.18,4.74-.28,7.2-1.38.32-2.3.72-3.23.73-28.21.03-56.42.03-84.63,0-.92,0-1.85-.39-2.47-.53-.39-.49-.57-.65-.68-.85-.11-.21-.22-.46-.22-.69-.07-34.29-.13-68.59-.18-102.88,0-.96.17-1.91.31-3.28,1.77-.59,3.5-1.41,5.33-1.75,27.49-5.04,54.97-10.12,82.49-14.96,24.65-4.33,49.36-8.38,74.04-12.52,2.37-.4,4.78-.56,7.56-.87,27.67,41.89,55.04,83.77,82.84,125.93,2.73-1.93,3.06-4.68,3.98-6.96,11.75-29.33,23.43-58.69,35.12-88.05,5.94-14.9,11.85-29.82,17.8-44.72.98-2.46,2.09-4.87,3.28-7.62,28.67-4.26,57.36-7.76,86.02-11.45.65-.08,1.36.31,2.45.59-1.92,7.65-4.99,14.78-7.46,22.1-2.56,7.6-5.33,15.13-7.99,22.7-2.56,7.31-5.1,14.62-7.54,21.64.5.62.6.82.77.95.19.14.44.3.66.3,15.07.09,30.15.17,45.22.23,1.21,0,2.43-.06,3.64-.2.42-.05.8-.43,1.6-.89-3.42-11.26-7.73-22.33-11.58-33.55-3.86-11.23-7.85-22.4-11.93-34,1.52-.58,2.56-1.22,3.65-1.36,17.37-2.13,34.75-4.19,52.13-6.29,6.27-.76,12.53-1.61,18.81-2.35,2.38-.28,4.78-.39,6.94-.55,3.82,6.61,53.9,130.2,71.69,176.77.5,1.3.82,2.67,1.25,4.11Z"/>
        <path class="cls-1" d="m278.65,199.33c-12.35,3.09-24.08,4.94-35.66,7.43-11.64,2.5-23.31,4.86-34.93,7.4-11.63,2.54-23.24,5.17-34.83,7.88-11.83,2.76-23.65,5.57-35.43,8.52-11.54,2.89-23.06,5.91-34.54,9.01-11.49,3.1-22.95,6.32-34.4,9.58-11.45,3.27-22.83,6.74-34.29,9.97-11.37,3.21-22.55,7.11-33.84,9.95-.43-.61-.61-.78-.67-.98-.07-.22-.09-.51,0-.72C35.2,179.1,70.36,90.84,105.54,2.59c.26-.64.82-1.16,1.19-1.67C113.77,0,160.26-.31,193.56.34c1.67.03,3.33.28,5.41.47,26.45,65.88,52.86,131.69,79.68,198.52Zm-126.52-100.01c-.98,1.68-1.74,2.61-2.11,3.68-7.78,21.96-15.53,43.93-23.23,65.92-.44,1.25-1.3,2.67.11,4.1.6.1,1.31.31,2.02.31,15.06.02,30.11.03,45.17,0,1.08,0,2.16-.41,3.9-.77-8.62-24.53-16.97-48.54-25.86-73.23Z"/>
        <path class="cls-1" d="m327.3,189.67c-.17-1.48-.51-3.11-.54-4.74-1.05-50.54-.47-177.11.84-183.74,2.41-1.42,5.13-.82,7.73-.82,18.96-.06,37.92-.03,56.88-.03,21.64,0,43.27.03,64.91,0,13.97-.03,27.71,1.65,40.83,6.49,33.92,12.52,56.16,35.9,64.17,71.55,4.33,19.25,4.17,38.62-2.02,57.62-2.19,6.71-5,13.15-9.49,19.1-73.99,10.44-147.9,21.97-221.56,35.06-.42.08-.91-.23-1.76-.47Zm92.02-58.98c8.87,0,17.37.28,25.84-.13,3.53-.17,7.19-1.36,10.43-2.86,9.89-4.59,14.83-14.02,13.98-25.75-.75-10.32-6.79-18.12-17.08-21.27-3.89-1.19-8.08-1.69-12.17-1.91-5.81-.32-11.65-.15-17.48-.06-1.35.02-2.69.56-3.91.83-.88,8.86-.66,45.01.39,51.15Z"/>
        <path class="cls-1" d="m600.35,147.62c-1-6.56-1.03-139.51-.05-146.46,2.29-1.29,5-.81,7.58-.81,20.91-.04,41.81-.02,62.72-.02,4.62,0,9.24-.03,13.86.02,1.92.02,3.85.19,5.62.29,2,2.63,1.2,5.41,1.2,7.99.07,26.99.04,53.97.04,80.96v7.79c2.65-.91,3.19-2.89,4.05-4.43,13.45-23.94,26.86-47.91,40.29-71.86,3.8-6.77,7.64-13.52,11.44-20.25,1.48-.19,2.67-.47,3.86-.47,33.3,0,66.6.02,99.9.07.67,0,1.35.35,2.03.54.71,2.63-1.27,4.14-2.37,5.87-14.22,22.35-28.5,44.67-42.77,66.99-9.43,14.74-18.86,29.48-28.3,44.22-1.31,2.04-2.65,4.07-3.89,5.97-6.45,1.82-166.36,23.39-175.21,23.61Z"/>
        <path class="cls-1" d="m509.58,432.08c4.3-7,6.35-13.47,9.14-19.56,2.74-5.96,5.21-12.04,7.81-18.06,2.7-6.24,5.41-12.49,8.16-18.71,2.64-5.97,4.82-12.16,8.18-17.95h17.49c2.42,1.82,2.95,4.57,4.01,6.97,8.77,20.03,17.47,40.1,26.21,60.14.95,2.17,2.01,4.3,3.54,7.55.99-3.1,1.72-5.03,2.23-7.01,5.31-20.46,10.58-40.93,15.89-61.38.54-2.07,1.25-4.1,1.81-5.92,6.99-.86,48.5-.82,54.52,0,1.21,2.48-.42,4.67-1.09,6.84-7.18,23.46-14.47,46.89-21.74,70.33-7.13,22.97-14.27,45.94-21.41,68.91-.72,2.31-1.48,4.61-2.3,7.18-1.12.29-2.25.84-3.38.85-12.88.06-25.77.05-38.65.01-.94,0-1.87-.31-3.27-.56-8.05-20.45-16.12-40.96-24.54-62.34-3.99,7.22-6.08,14.14-8.77,20.79-2.82,6.98-5.51,14.02-8.27,21.03-2.66,6.77-5.34,13.53-8.07,20.45-4.93,1.3-9.8.55-14.59.67-5.1.13-10.21.03-15.31.03h-13.78c-.93-.68-1.14-.8-1.32-.97-.17-.16-.38-.34-.44-.54-15.23-48.69-30.46-97.38-45.67-146.07-.51-1.62-.91-3.27-1.34-4.91-.06-.23-.06-.49,0-.71.06-.23.22-.43.61-1.12,1.05-.13,2.42-.4,3.8-.44,20.69-.62,44.34-.28,50.68.77,6.82,23.82,12.64,48.13,19.85,73.77Z"/>
        <path class="cls-1" d="m756.29,516.78c-12.62.08-25.63-1.46-37.96-6.47-25.35-10.29-42.04-28.3-48.08-55.35-3.4-15.22-3.09-30.49,1.4-45.43,7.71-25.66,25.09-42.14,49.99-51.02,12.05-4.3,24.62-5.63,37.32-5.38,11.2.22,22.32,1.57,32.94,5.44,25.65,9.36,43.31,26.49,50.36,53.31,4.35,16.55,4.16,33.32-.9,49.68-7.39,23.87-23.62,39.72-46.61,48.86-12.14,4.83-24.88,6.39-38.47,6.37Zm-33.11-83.94c.18,3.65.13,5.61.38,7.53,1.68,12.87,8.18,22.21,20.5,26.88,6.48,2.46,13.28,2.79,20.1,1.39,13.62-2.79,22.75-12.28,25.23-25.93.97-5.34.92-10.6-.09-15.93-2.5-13.17-11.83-22.88-24.93-25.39-6-1.15-12.07-1.06-18.04.66-10.63,3.06-17.7,9.92-21.13,20.31-1.27,3.86-1.58,8.05-2.02,10.46Z"/>
        <path class="cls-1" d="m154.43,511.34c-6.37,1.19-29.54,1.46-41.94.62-4.97-4.91-8.72-11.2-13.16-16.92-4.62-5.95-9.04-12.06-13.55-18.1-4.36-5.85-8.72-11.7-13.08-17.54-4.35-5.83-8.71-11.65-12.97-17.34-2.68.56-1.69,2.41-1.69,3.57-.08,19.21-.05,38.42-.07,57.64,0,2.64-.14,5.27-.23,8.37-8.2,1.36-16.17.52-24.08.65-7.99.13-16,.18-23.52-.08-2.15-2.36-1.55-4.65-1.55-6.76-.05-15.81-.03-31.61-.03-47.42,0-22.13,0-44.26,0-66.39,0-2.65,0-5.29,0-7.52,5.42-4.54,36.82-23.84,42.62-26.29,2.68.58,3.65,3.03,5.08,4.9,14.13,18.58,28.19,37.21,42.29,55.81,1.58,2.09,3.25,4.12,4.87,6.17,2.37-1.23,1.63-3.13,1.63-4.66.05-17.75.03-35.51.04-53.26,0-2.65.09-5.29.15-8.18,1.46-.41,2.57-.99,3.69-1,14.1-.05,28.2-.03,42.31.01.69,0,1.39.31,2.6.61.19,1.25.57,2.61.58,3.97.06,8.02.04,16.05.04,24.08,0,38.67,0,77.33,0,116v9.08Z"/>
        <path class="cls-1" d="m974.61,458.6c4.5,9.07,8.84,17.76,13.14,26.47,4.27,8.66,8.71,17.23,13.02,26.41-1.62.38-2.5.77-3.38.77-17.73.04-35.45.03-53.41.03-7.04-13.69-12.93-27.55-19.79-40.98-3.38-1.27-6.66-.65-10.15-.41-1.04,7.27-.38,14.06-.54,20.82-.16,6.52.21,13.05-.24,19.97-8.79,1.32-17.25.51-25.65.59-8.2.08-16.43.39-24.15-.23-.6-.75-.78-.92-.9-1.13-.11-.2-.24-.44-.24-.66-.08-47.91-.15-95.82-.21-143.74,0-2.19.05-4.38.13-6.56.02-.45.32-.9.64-1.74,1.43-.21,3.07-.64,4.7-.65,22.86-.04,45.72-.13,68.58.04,7.55.05,15.06,1.05,22.19,3.78,21.72,8.33,34.43,23.82,36.85,47.18.5,4.8.4,9.72.02,14.54-.95,12.18-6.22,22.34-15.18,30.6-.89.82-1.85,1.58-2.76,2.38-.72.64-1.4,1.31-2.68,2.52Zm-60.38-28.32c5.63,1.23,11.39,1.19,17.07-.14,7.19-1.68,11.48-7.83,10.93-15.11-.52-6.97-5.27-11.95-12.66-12.8-3.84-.44-7.76-.35-11.64-.32-1.34,0-2.68.53-3.86.78-.86,7.6-.78,21.58.15,27.58Z"/>
        <path class="cls-1" d="m1109.92,433.8c8.28,12.85,16.77,25.56,25.14,38.35,8.37,12.78,16.75,25.55,25.45,38.81-1.32.58-2.1,1.22-2.89,1.22-18.48,0-36.95-.06-55.43-.12-.23,0-.45-.15-1.26-.43-1.03-1.6-2.4-3.57-3.62-5.63-8.8-14.85-17.56-29.73-26.36-44.58-.95-1.6-2.07-3.09-3.68-5.48-.94,2.99-.61,5.11-.66,7.16-.06,2.43-.01,4.86-.01,7.3v20.43c0,2.19,0,4.38,0,6.57,0,2.43.03,4.87-.01,7.3-.04,2.15-.17,4.3-.27,6.71-1.09.32-1.97.8-2.85.8-15.08.04-30.15.04-45.23,0-.68,0-1.37-.34-2.44-.63-.18-1.57-.54-3.19-.54-4.82-.03-47.92-.03-95.83,0-143.75,0-1.44.22-2.88.36-4.58,1.22-.3,2.36-.83,3.49-.83,14.59-.05,29.18-.04,43.77,0,.93,0,1.86.32,3.2.57,1.01,4.36.4,8.72.5,13.01.1,4.38.02,8.76.02,13.13,0,4.38,0,8.76,0,13.13,0,4.3.01,8.6.02,13.01,2.72-.2,2.95-2.23,3.71-3.56,8.02-14.18,15.96-28.4,23.93-42.61,1.18-2.1,2.46-4.15,3.55-6,6.14-.99,52.04-1.04,58.5-.12,1.19,1.57-.04,2.73-.76,3.87-5.99,9.45-12.02,18.87-18.04,28.29-7.86,12.29-15.73,24.58-23.58,36.87-1.3,2.04-2.51,4.13-4.02,6.61Z"/>
        <path class="cls-1" d="m179.33,512.05c-.91-6.92-.96-146.62-.12-153.64,1.19-.27,2.52-.81,3.87-.83,6.08-.1,12.16-.06,18.24-.06,24.81,0,49.62-.01,74.43.02,2.63,0,5.33-.36,7.79.61,1.16,5.25,1.41,31.53.44,40.08-1.57,1.62-3.61,1.14-5.49,1.15-13.62.04-27.24,0-40.86.04-2.37,0-4.74.21-7.4.33-.9,5.23-.63,10.02-.24,14.65,1.68,1.82,3.73,1.37,5.61,1.37,11.68.04,23.35,0,35.03.04,2.38,0,4.76.2,6.99.3,1.36,5.39,1.67,26.81.64,36.66-1.46,1.77-3.54,1.24-5.4,1.25-11.67.06-23.35.02-35.03.05-2.39,0-4.78.18-7.32.29-1.4,5.42-.95,10.4-.29,15.84,2.01.18,3.88.49,5.76.5,13.86.04,27.73.01,41.59.04,2.38,0,4.77.18,7.56.3.97,4.61.42,8.97.51,13.27.09,4.62.04,9.24.02,13.87-.02,4.34-.09,8.67-.14,13.09-2.85,1.52-5.56,1.03-8.15,1.03-19.46.05-38.92.03-58.38.03-10.7,0-21.4.01-32.11-.01-2.4,0-4.8-.16-7.56-.25Z"/>
        <path class="cls-1" d="m917.07,105.8c.22-1.29.22-2.29.57-3.15,13.45-33.84,26.93-67.68,40.49-101.71,1.67-.22,3.06-.58,4.45-.58,28.2-.03,56.39-.02,84.59,0,.96,0,1.92.19,3.18.32.65,1.16,1.5,2.33,2.02,3.63,11.15,27.72,22.27,55.46,33.38,83.2.52,1.31.86,2.69,1.19,3.73-1.17,1.99-2.75,1.55-4.1,1.63-25.71,1.55-51.45,2.74-77.12,4.71-22.52,1.73-44.98,4.32-67.46,6.55-5.08.5-10.14,1.16-15.22,1.64-1.88.18-3.79.03-5.95.03Z"/>
        <path class="cls-1" d="m337.49,402.94c-13.31-1.01-26.62.25-39.84-.72-.36-1.05-.78-1.71-.78-2.37-.06-12.89-.08-25.77-.06-38.66,0-.93.37-1.86.61-2.93,1.03-.25,1.95-.66,2.87-.66,43.03,0,86.05.04,129.08.11.66,0,1.32.49,1.92.72.88,5.53,1.01,35.64.16,43.43-1.49.22-3.09.66-4.7.67-9.24.07-18.48.04-27.71.04-2.41,0-4.81,0-7.62,0-.35,1.97-.84,3.55-.86,5.14-.09,7.54-.04,15.07-.04,22.61,0,24.31,0,48.63-.01,72.94,0,2.63-.16,5.26-.26,8.25-4.53,1.45-8.9.64-13.17.78-4.13.14-8.26.03-12.4.03-4.38,0-8.75.04-13.13-.01-4.09-.04-8.2.26-12.05-.31-1.79-2.9-1.12-5.64-1.12-8.24-.05-30.88-.02-61.76-.06-92.64,0-2.6.43-5.3-.81-8.17Z"/>
        <path class="cls-1" d="m573.96,275.38c-1.43.32-2.32.66-3.23.71-10.79.59-92.63.12-97.65-.53-3.23-4.69-32.56-66.35-35.13-73.96,7.23-2.74,14.89-3.75,22.36-5.5,7.33-1.72,14.69-3.35,22.04-4.96,7.6-1.66,15.2-3.28,22.81-4.88,7.33-1.54,14.68-3.03,21.78-4.49,3.52,4.76,42.98,83.37,47.02,93.63Z"/>
        <path class="cls-1" d="m327.28,229.36c7.63-3.77,80.39-22.18,90.19-22.82.16.17.33.32.46.5.14.2.33.42.33.63.07,20.68.13,41.36.16,62.03,0,1.69-.15,3.38-.23,5.1-2.44,1.98-5.21,1.3-7.78,1.3-22.14.06-44.27.03-66.41.03-4.14,0-8.27.05-12.4-.05-1.4-.03-2.79-.43-4.06-.65-1-5.76-1.14-38.88-.26-46.09Z"/>
        <path class="cls-1" d="m293.78,239.14c3.24,5.29,12.94,29.3,14.69,36.34-1.4.22-2.75.62-4.1.62-29.84.04-59.68.04-89.53,0-1.32,0-2.64-.43-4.44-.74,11.28-8.58,58.67-29.1,83.37-36.23Z"/>
      </g>
    </g>
  </g>
</svg>